<svg width="150" height="150" viewBox="0 0 150 150" fill="none" xmlns="http://www.w3.org/2000/svg">
<path d="M75 149.544C54.9724 149.544 36.1418 141.786 21.9613 127.649C7.78085 113.512 0 94.7385 0 74.7718C0 54.8051 7.78085 35.986 21.9613 21.8945C36.1418 7.75718 54.9724 0 75 0C95.0276 0 113.904 7.75718 128.039 21.8945C142.219 35.986 150 54.8051 150 74.7718C150 94.7385 142.219 113.512 128.039 127.649C113.904 141.786 95.0276 149.544 75 149.544Z" fill="#FF5252"/>
<path d="M124.954 102.541H117.311C117.587 101.945 117.772 101.302 117.91 100.66C119.015 95.1515 120.304 86.8435 120.442 77.8929H112.385C111.556 77.8929 110.866 77.2503 110.866 76.4241V61.0475C110.866 60.2213 111.556 59.5328 112.385 59.5328H119.291C118.923 56.9164 118.508 54.6214 118.094 52.7395C117.265 48.8839 113.904 46.1298 109.991 46.1298H107.643V44.2938C107.643 42.825 106.446 41.6316 104.926 41.6316H38.1215C36.6021 41.6316 35.4051 42.825 35.4051 44.2938V46.1298H33.6095C29.4659 46.1298 25.9668 49.1593 25.3683 53.2444C24.5856 58.523 23.7568 66.5555 23.7568 76.7454C23.7568 85.8796 24.6776 94.463 25.5064 100.201C26.1049 104.286 29.604 107.315 33.7476 107.315H35.1288C35.0828 106.948 35.0828 106.581 35.0828 106.168C35.0828 98.4104 41.3443 92.1221 49.1252 92.1221C56.86 92.1221 63.1675 98.4104 63.1675 106.168C63.1675 106.581 63.1215 106.948 63.1215 107.315H75.092V59.0279C75.092 54.8968 78.453 51.5461 82.5506 51.5461H95.1196C99.2172 51.5461 102.624 54.8968 102.624 59.0279V107.315H124.954C125.691 107.315 126.243 106.764 126.243 106.03V103.827C126.243 103.092 125.691 102.541 124.954 102.541ZM65.4695 76.47C65.4695 77.2962 64.7789 77.9388 63.9502 77.9388H37.2467C36.418 77.9388 35.7274 77.2962 35.7274 76.47V61.0934C35.7274 60.2672 36.418 59.5787 37.2467 59.5787H63.9502C64.7789 59.5787 65.4695 60.2672 65.4695 61.0934V76.47Z" fill="white"/>
<path d="M95.1197 54.5297H82.5506C80.1105 54.5297 78.0847 56.5493 78.0847 59.028V107.315H99.6317V59.028C99.6317 56.5493 97.6059 54.5297 95.1197 54.5297ZM94.5212 76.4242C94.5212 77.2505 93.8766 77.8931 93.0479 77.8931H84.6225C83.7937 77.8931 83.1492 77.2505 83.1492 76.4242V61.0476C83.1492 60.2214 83.7937 59.5329 84.6225 59.5329H93.0479C93.8766 59.5329 94.5212 60.2214 94.5212 61.0476V76.4242Z" fill="white"/>
<path d="M49.0796 95.1057C43.0023 95.1057 38.0759 100.063 38.0759 106.168C38.0759 106.581 38.0759 106.948 38.122 107.315C38.7205 112.869 43.4166 117.23 49.0796 117.23C54.8347 117.23 59.4848 112.869 60.0833 107.315C60.1293 106.948 60.1293 106.581 60.1293 106.168C60.1293 100.063 55.203 95.1057 49.0796 95.1057ZM49.0796 111.125C46.7776 111.125 44.7978 109.518 44.2914 107.315C44.1993 106.948 44.1533 106.581 44.1533 106.168C44.1533 103.414 46.3632 101.21 49.0796 101.21C51.842 101.21 54.052 103.414 54.052 106.168C54.052 106.581 54.0059 106.948 53.9139 107.315C53.4074 109.518 51.4277 111.125 49.0796 111.125Z" fill="white"/>
</svg>
