<svg width="201" height="40" viewBox="0 0 201 40" fill="none" xmlns="http://www.w3.org/2000/svg">
<path d="M20.2248 38.8804C15.1364 38.8804 10.3522 36.9096 6.7494 33.3177C3.1466 29.7259 1.16974 24.9562 1.16974 19.8833C1.16974 14.8104 3.1466 10.0291 6.7494 6.44891C10.3522 2.85708 15.1364 0.88623 20.2248 0.88623C25.3132 0.88623 30.1091 2.85708 33.7002 6.44891C37.303 10.0291 39.2798 14.8104 39.2798 19.8833C39.2798 24.9562 37.303 29.7259 33.7002 33.3177C30.1091 36.9096 25.3132 38.8804 20.2248 38.8804Z" fill="#FF5252"/>
<path d="M32.9164 26.9386H30.9747C31.0449 26.787 31.0916 26.6237 31.1267 26.4605C31.4075 25.061 31.735 22.9503 31.7701 20.6762H29.7231C29.5125 20.6762 29.337 20.5129 29.337 20.303V16.3963C29.337 16.1864 29.5125 16.0115 29.7231 16.0115H31.4777C31.3841 15.3468 31.2788 14.7637 31.1735 14.2855C30.963 13.3059 30.1091 12.6062 29.1148 12.6062H28.5182V12.1398C28.5182 11.7666 28.2141 11.4634 27.8281 11.4634H10.8552C10.4691 11.4634 10.165 11.7666 10.165 12.1398V12.6062H9.70881C8.65604 12.6062 7.76704 13.3759 7.61498 14.4138C7.41612 15.7549 7.20557 17.7957 7.20557 20.3847C7.20557 22.7054 7.43951 24.8861 7.65007 26.3438C7.80213 27.3817 8.69114 28.1514 9.7439 28.1514H10.0948C10.0831 28.0581 10.0831 27.9648 10.0831 27.8599C10.0831 25.889 11.674 24.2914 13.6508 24.2914C15.616 24.2914 17.2185 25.889 17.2185 27.8599C17.2185 27.9648 17.2068 28.0581 17.2068 28.1514H20.2482V15.8832C20.2482 14.8336 21.1021 13.9823 22.1431 13.9823H25.3365C26.3776 13.9823 27.2432 14.8336 27.2432 15.8832V28.1514H32.9164C33.1036 28.1514 33.244 28.0115 33.244 27.8249V27.2651C33.244 27.0785 33.1036 26.9386 32.9164 26.9386ZM17.8034 20.3147C17.8034 20.5246 17.6279 20.6879 17.4174 20.6879H10.6329C10.4224 20.6879 10.2469 20.5246 10.2469 20.3147V16.408C10.2469 16.1981 10.4224 16.0231 10.6329 16.0231H17.4174C17.6279 16.0231 17.8034 16.1981 17.8034 16.408V20.3147Z" fill="white"/>
<path d="M25.3366 14.7405H22.1432C21.5232 14.7405 21.0085 15.2536 21.0085 15.8833V28.1516H26.4829V15.8833C26.4829 15.2536 25.9682 14.7405 25.3366 14.7405ZM25.1845 20.3032C25.1845 20.5131 25.0208 20.6763 24.8102 20.6763H22.6696C22.459 20.6763 22.2953 20.5131 22.2953 20.3032V16.3965C22.2953 16.1865 22.459 16.0116 22.6696 16.0116H24.8102C25.0208 16.0116 25.1845 16.1865 25.1845 16.3965V20.3032Z" fill="white"/>
<path d="M13.6392 25.0496C12.0951 25.0496 10.8435 26.309 10.8435 27.8601C10.8435 27.965 10.8435 28.0583 10.8552 28.1516C11.0073 29.5627 12.2004 30.6706 13.6392 30.6706C15.1014 30.6706 16.2828 29.5627 16.4349 28.1516C16.4466 28.0583 16.4466 27.965 16.4466 27.8601C16.4466 26.309 15.1949 25.0496 13.6392 25.0496ZM13.6392 29.1195C13.0543 29.1195 12.5513 28.7114 12.4227 28.1516C12.3993 28.0583 12.3876 27.965 12.3876 27.8601C12.3876 27.1603 12.949 26.6006 13.6392 26.6006C14.341 26.6006 14.9025 27.1603 14.9025 27.8601C14.9025 27.965 14.8908 28.0583 14.8674 28.1516C14.7387 28.7114 14.2358 29.1195 13.6392 29.1195Z" fill="white"/>
<path d="M84.7125 11.4401H79.94L85.7068 28.5013H90.0699L95.8484 11.4401H91.0759L87.8942 22.9387L84.7125 11.4401ZM67.5524 16.1048C68.1607 15.2302 69.0263 14.7987 70.1492 14.7987C71.2722 14.7987 72.1495 15.2419 72.7695 16.1165C73.4011 16.9795 73.7053 18.2156 73.7053 19.8016C73.7053 21.6675 73.4011 23.0319 72.7695 23.8716C72.1495 24.7229 71.2839 25.1427 70.1843 25.1427C69.038 25.1427 68.1607 24.7113 67.5524 23.8599C66.9442 22.997 66.64 21.7608 66.64 20.1398C66.64 18.3206 66.9442 16.9678 67.5524 16.1048ZM62.0663 20.0232C62.0663 22.7287 62.8033 24.8745 64.2772 26.4605C65.7393 28.0349 67.7162 28.8162 70.1843 28.8162C72.6525 28.8162 74.6177 28.0349 76.0798 26.4489C77.542 24.8629 78.2789 22.7637 78.2789 20.1515L78.2438 18.9736C78.0801 16.5596 77.2613 14.6471 75.7991 13.236C74.3486 11.825 72.4536 11.1252 70.1492 11.1252C68.5233 11.1252 67.0962 11.4868 65.868 12.2098C64.6398 12.9445 63.704 13.9591 63.0489 15.2885C62.3939 16.618 62.0663 18.1223 62.0663 19.8133V20.0232ZM60.2533 11.3352C59.8087 11.1952 59.3292 11.1252 58.8262 11.1252C57.2002 11.1252 55.9369 11.9066 55.0128 13.4809L54.8842 11.4401H50.5678V28.5013H55.1415V17.341C55.6796 16.1748 56.8142 15.5917 58.5454 15.5917C59.0133 15.5917 59.5631 15.6267 60.1948 15.72L60.2533 11.3352Z" fill="#17232C"/>
<path d="M193.826 25.0961C193.37 25.4226 192.715 25.5859 191.837 25.5859C190.901 25.5859 190.141 25.376 189.591 24.9445C189.03 24.513 188.726 23.8949 188.691 23.0786H184.351C184.351 24.1048 184.667 25.0728 185.298 25.9591C185.93 26.8454 186.807 27.5451 187.919 28.0582C189.03 28.5713 190.305 28.8162 191.744 28.8162C193.861 28.8162 195.592 28.3381 196.926 27.3818C198.271 26.4139 198.938 25.1544 198.938 23.6034C198.938 21.4226 197.733 19.8949 195.311 19.0086C194.539 18.7287 193.58 18.4722 192.434 18.2506C191.299 18.0174 190.492 17.7492 190.012 17.4459C189.533 17.1311 189.287 16.7229 189.287 16.2215C189.287 15.685 189.498 15.2419 189.919 14.892C190.34 14.5422 190.937 14.3789 191.709 14.3789C192.609 14.3789 193.264 14.5888 193.685 15.0086C194.107 15.4401 194.317 15.9766 194.317 16.6296H198.891C198.891 14.997 198.236 13.6792 196.937 12.6529C195.639 11.6384 193.896 11.1252 191.72 11.1252C189.685 11.1252 188.036 11.6267 186.784 12.6529C185.521 13.6675 184.889 14.927 184.889 16.443C184.889 19.0319 186.924 20.7579 190.995 21.6092C192.223 21.8658 193.112 22.1573 193.662 22.4722C194.212 22.7987 194.493 23.2302 194.493 23.79C194.493 24.3264 194.27 24.7579 193.826 25.0961ZM176.221 25.0961C175.777 25.4226 175.11 25.5859 174.233 25.5859C173.297 25.5859 172.548 25.376 171.987 24.9445C171.425 24.513 171.133 23.8949 171.086 23.0786H166.758C166.758 24.1048 167.074 25.0728 167.706 25.9591C168.337 26.8454 169.214 27.5451 170.326 28.0582C171.437 28.5713 172.712 28.8162 174.139 28.8162C176.256 28.8162 177.988 28.3381 179.333 27.3818C180.666 26.4139 181.345 25.1544 181.345 23.6034C181.345 21.4226 180.128 19.8949 177.718 19.0086C176.935 18.7287 175.976 18.4722 174.841 18.2506C173.695 18.0174 172.887 17.7492 172.408 17.4459C171.928 17.1311 171.694 16.7229 171.694 16.2215C171.694 15.685 171.905 15.2419 172.326 14.892C172.747 14.5422 173.344 14.3789 174.116 14.3789C175.005 14.3789 175.671 14.5888 176.093 15.0086C176.514 15.4401 176.724 15.9766 176.724 16.6296H181.298C181.298 14.997 180.643 13.6792 179.344 12.6529C178.034 11.6384 176.303 11.1252 174.127 11.1252C172.092 11.1252 170.443 11.6267 169.179 12.6529C167.928 13.6675 167.296 14.927 167.296 16.443C167.296 19.0319 169.331 20.7579 173.402 21.6092C174.619 21.8658 175.508 22.1573 176.069 22.4722C176.619 22.7987 176.9 23.2302 176.9 23.79C176.9 24.3264 176.666 24.7579 176.221 25.0961ZM153.809 24.7812C153.411 24.4197 153.212 23.9416 153.212 23.3818L153.224 23.1136C153.365 21.5392 154.593 20.7462 156.874 20.7462H158.582V23.685C158.312 24.1865 157.891 24.583 157.318 24.8862C156.745 25.1894 156.125 25.341 155.458 25.341C154.756 25.341 154.207 25.1544 153.809 24.7812ZM163.857 28.5013V28.2331C163.413 27.4051 163.179 26.1806 163.167 24.5596V17.1661C163.167 15.2535 162.559 13.7725 161.319 12.7112C160.079 11.65 158.406 11.1252 156.289 11.1252C154.897 11.1252 153.645 11.3701 152.522 11.8483C151.411 12.3264 150.545 12.9795 149.937 13.8191C149.317 14.6588 149.013 15.5801 149.013 16.5713H153.587C153.587 15.9299 153.809 15.4168 154.242 15.0553C154.675 14.6821 155.283 14.4955 156.055 14.4955C156.932 14.4955 157.576 14.7404 157.973 15.2069C158.383 15.685 158.582 16.3147 158.582 17.1078V18.0757H156.476C153.938 18.0873 151.996 18.5771 150.651 19.5451C149.306 20.513 148.639 21.9008 148.639 23.7083C148.639 25.1777 149.189 26.4022 150.288 27.3701C151.388 28.3381 152.78 28.8162 154.452 28.8162C156.23 28.8162 157.669 28.2098 158.78 26.9736C158.874 27.5801 159.026 28.0932 159.237 28.5013H163.857ZM137.702 25.1427C136.263 25.1427 135.269 24.583 134.707 23.4634V16.4664C135.245 15.3818 136.228 14.8337 137.667 14.8337C138.743 14.8337 139.562 15.2652 140.123 16.1282C140.685 16.9911 140.977 18.2156 140.977 19.8016C140.977 23.3585 139.877 25.1427 137.702 25.1427ZM145.539 19.8949C145.539 17.1661 144.954 15.0203 143.784 13.4576C142.615 11.9066 140.977 11.1252 138.871 11.1252C137.082 11.1252 135.643 11.79 134.532 13.1078L134.38 11.4401H130.133V35.0669H134.707V27.0203C135.772 28.2215 137.175 28.8162 138.895 28.8162C140.93 28.8162 142.556 28.0349 143.749 26.4489C144.942 24.8629 145.539 22.7637 145.539 20.1282V19.8949ZM127.057 11.3352C126.613 11.1952 126.145 11.1252 125.642 11.1252C124.016 11.1252 122.741 11.9066 121.828 13.4809L121.7 11.4401H117.383V28.5013H121.945V17.341C122.483 16.1748 123.618 15.5917 125.349 15.5917C125.829 15.5917 126.379 15.6267 126.999 15.72L127.057 11.3352ZM108.528 15.6267C109.055 16.1865 109.336 16.9678 109.347 17.9824V18.3439H102.996C103.148 17.2127 103.51 16.3264 104.072 15.72C104.645 15.1019 105.37 14.7987 106.282 14.7987C107.253 14.7987 108.002 15.0786 108.528 15.6267ZM110.692 28.0115C111.862 27.4634 112.798 26.7171 113.476 25.7492L111.23 23.2419C110.248 24.513 108.868 25.1427 107.101 25.1427C105.967 25.1427 105.019 24.8045 104.282 24.1398C103.534 23.4634 103.089 22.5655 102.949 21.4576H113.839V19.5917C113.839 16.8978 113.172 14.8104 111.827 13.3293C110.482 11.8599 108.645 11.1252 106.294 11.1252C104.738 11.1252 103.346 11.4868 102.13 12.2215C100.913 12.9561 99.9659 13.994 99.3108 15.3468C98.6441 16.6996 98.3049 18.2273 98.3049 19.9416V20.3847C98.3049 22.9387 99.1003 24.9795 100.679 26.5188C102.247 28.0582 104.294 28.8162 106.809 28.8162C108.224 28.8162 109.523 28.548 110.692 28.0115Z" fill="#17232C"/>
</svg>
